<svg width="16" height="20" viewBox="0 0 16 20" fill="none" xmlns="http://www.w3.org/2000/svg">
<path d="M4.26065 14.513V15.2168C4.26065 15.3121 4.224 15.3964 4.15068 15.4697C4.0847 15.5357 4.00406 15.5687 3.90875 15.5687H3.20495C3.10964 15.5687 3.02533 15.5357 2.95202 15.4697C2.88604 15.3964 2.85305 15.3121 2.85305 15.2168V14.513C2.85305 14.4177 2.88604 14.3371 2.95202 14.2711C3.02533 14.1978 3.10964 14.1611 3.20495 14.1611H3.90875C4.00406 14.1611 4.0847 14.1978 4.15068 14.2711C4.224 14.3371 4.26065 14.4177 4.26065 14.513ZM4.26065 11.6978V12.4016C4.26065 12.4969 4.224 12.5812 4.15068 12.6545C4.0847 12.7205 4.00406 12.7535 3.90875 12.7535H3.20495C3.10964 12.7535 3.02533 12.7205 2.95202 12.6545C2.88604 12.5812 2.85305 12.4969 2.85305 12.4016V11.6978C2.85305 11.6025 2.88604 11.5218 2.95202 11.4559C3.02533 11.3825 3.10964 11.3459 3.20495 11.3459H3.90875C4.00406 11.3459 4.0847 11.3825 4.15068 11.4559C4.224 11.5218 4.26065 11.6025 4.26065 11.6978ZM7.07587 11.6978V12.4016C7.07587 12.4969 7.03921 12.5812 6.9659 12.6545C6.89992 12.7205 6.81927 12.7535 6.72396 12.7535H6.02016C5.92485 12.7535 5.84054 12.7205 5.76723 12.6545C5.70125 12.5812 5.66826 12.4969 5.66826 12.4016V11.6978C5.66826 11.6025 5.70125 11.5218 5.76723 11.4559C5.84054 11.3825 5.92485 11.3459 6.02016 11.3459H6.72396C6.81927 11.3459 6.89992 11.3825 6.9659 11.4559C7.03921 11.5218 7.07587 11.6025 7.07587 11.6978ZM4.26065 8.88258V9.58638C4.26065 9.68169 4.224 9.766 4.15068 9.83931C4.0847 9.90529 4.00406 9.93828 3.90875 9.93828H3.20495C3.10964 9.93828 3.02533 9.90529 2.95202 9.83931C2.88604 9.766 2.85305 9.68169 2.85305 9.58638V8.88258C2.85305 8.78727 2.88604 8.70663 2.95202 8.64065C3.02533 8.56733 3.10964 8.53068 3.20495 8.53068H3.90875C4.00406 8.53068 4.0847 8.56733 4.15068 8.64065C4.224 8.70663 4.26065 8.78727 4.26065 8.88258ZM12.7063 14.513V15.2168C12.7063 15.3121 12.6696 15.3964 12.5963 15.4697C12.5303 15.5357 12.4497 15.5687 12.3544 15.5687H11.6506C11.5553 15.5687 11.471 15.5357 11.3977 15.4697C11.3317 15.3964 11.2987 15.3121 11.2987 15.2168V14.513C11.2987 14.4177 11.3317 14.3371 11.3977 14.2711C11.471 14.1978 11.5553 14.1611 11.6506 14.1611H12.3544C12.4497 14.1611 12.5303 14.1978 12.5963 14.2711C12.6696 14.3371 12.7063 14.4177 12.7063 14.513ZM9.89108 11.6978V12.4016C9.89108 12.4969 9.85442 12.5812 9.78111 12.6545C9.71513 12.7205 9.63449 12.7535 9.53918 12.7535H8.83538C8.74007 12.7535 8.65576 12.7205 8.58245 12.6545C8.51646 12.5812 8.48347 12.4969 8.48347 12.4016V11.6978C8.48347 11.6025 8.51646 11.5218 8.58245 11.4559C8.65576 11.3825 8.74007 11.3459 8.83538 11.3459H9.53918C9.63449 11.3459 9.71513 11.3825 9.78111 11.4559C9.85442 11.5218 9.89108 11.6025 9.89108 11.6978ZM7.07587 8.88258V9.58638C7.07587 9.68169 7.03921 9.766 6.9659 9.83931C6.89992 9.90529 6.81927 9.93828 6.72396 9.93828H6.02016C5.92485 9.93828 5.84054 9.90529 5.76723 9.83931C5.70125 9.766 5.66826 9.68169 5.66826 9.58638V8.88258C5.66826 8.78727 5.70125 8.70663 5.76723 8.64065C5.84054 8.56733 5.92485 8.53068 6.02016 8.53068H6.72396C6.81927 8.53068 6.89992 8.56733 6.9659 8.64065C7.03921 8.70663 7.07587 8.78727 7.07587 8.88258ZM4.26065 6.06736V6.77117C4.26065 6.86647 4.224 6.95078 4.15068 7.0241C4.0847 7.09008 4.00406 7.12307 3.90875 7.12307H3.20495C3.10964 7.12307 3.02533 7.09008 2.95202 7.0241C2.88604 6.95078 2.85305 6.86647 2.85305 6.77117V6.06736C2.85305 5.97206 2.88604 5.89141 2.95202 5.82543C3.02533 5.75212 3.10964 5.71546 3.20495 5.71546H3.90875C4.00406 5.71546 4.0847 5.75212 4.15068 5.82543C4.224 5.89141 4.26065 5.97206 4.26065 6.06736ZM12.7063 11.6978V12.4016C12.7063 12.4969 12.6696 12.5812 12.5963 12.6545C12.5303 12.7205 12.4497 12.7535 12.3544 12.7535H11.6506C11.5553 12.7535 11.471 12.7205 11.3977 12.6545C11.3317 12.5812 11.2987 12.4969 11.2987 12.4016V11.6978C11.2987 11.6025 11.3317 11.5218 11.3977 11.4559C11.471 11.3825 11.5553 11.3459 11.6506 11.3459H12.3544C12.4497 11.3459 12.5303 11.3825 12.5963 11.4559C12.6696 11.5218 12.7063 11.6025 12.7063 11.6978ZM9.89108 8.88258V9.58638C9.89108 9.68169 9.85442 9.766 9.78111 9.83931C9.71513 9.90529 9.63449 9.93828 9.53918 9.93828H8.83538C8.74007 9.93828 8.65576 9.90529 8.58245 9.83931C8.51646 9.766 8.48347 9.68169 8.48347 9.58638V8.88258C8.48347 8.78727 8.51646 8.70663 8.58245 8.64065C8.65576 8.56733 8.74007 8.53068 8.83538 8.53068H9.53918C9.63449 8.53068 9.71513 8.56733 9.78111 8.64065C9.85442 8.70663 9.89108 8.78727 9.89108 8.88258ZM7.07587 6.06736V6.77117C7.07587 6.86647 7.03921 6.95078 6.9659 7.0241C6.89992 7.09008 6.81927 7.12307 6.72396 7.12307H6.02016C5.92485 7.12307 5.84054 7.09008 5.76723 7.0241C5.70125 6.95078 5.66826 6.86647 5.66826 6.77117V6.06736C5.66826 5.97206 5.70125 5.89141 5.76723 5.82543C5.84054 5.75212 5.92485 5.71546 6.02016 5.71546H6.72396C6.81927 5.71546 6.89992 5.75212 6.9659 5.82543C7.03921 5.89141 7.07587 5.97206 7.07587 6.06736ZM4.26065 3.25215V3.95595C4.26065 4.05126 4.224 4.13557 4.15068 4.20888C4.0847 4.27487 4.00406 4.30786 3.90875 4.30786H3.20495C3.10964 4.30786 3.02533 4.27487 2.95202 4.20888C2.88604 4.13557 2.85305 4.05126 2.85305 3.95595V3.25215C2.85305 3.15684 2.88604 3.0762 2.95202 3.01022C3.02533 2.93691 3.10964 2.90025 3.20495 2.90025H3.90875C4.00406 2.90025 4.0847 2.93691 4.15068 3.01022C4.224 3.0762 4.26065 3.15684 4.26065 3.25215ZM12.7063 8.88258V9.58638C12.7063 9.68169 12.6696 9.766 12.5963 9.83931C12.5303 9.90529 12.4497 9.93828 12.3544 9.93828H11.6506C11.5553 9.93828 11.471 9.90529 11.3977 9.83931C11.3317 9.766 11.2987 9.68169 11.2987 9.58638V8.88258C11.2987 8.78727 11.3317 8.70663 11.3977 8.64065C11.471 8.56733 11.5553 8.53068 11.6506 8.53068H12.3544C12.4497 8.53068 12.5303 8.56733 12.5963 8.64065C12.6696 8.70663 12.7063 8.78727 12.7063 8.88258ZM9.89108 6.06736V6.77117C9.89108 6.86647 9.85442 6.95078 9.78111 7.0241C9.71513 7.09008 9.63449 7.12307 9.53918 7.12307H8.83538C8.74007 7.12307 8.65576 7.09008 8.58245 7.0241C8.51646 6.95078 8.48347 6.86647 8.48347 6.77117V6.06736C8.48347 5.97206 8.51646 5.89141 8.58245 5.82543C8.65576 5.75212 8.74007 5.71546 8.83538 5.71546H9.53918C9.63449 5.71546 9.71513 5.75212 9.78111 5.82543C9.85442 5.89141 9.89108 5.97206 9.89108 6.06736ZM7.07587 3.25215V3.95595C7.07587 4.05126 7.03921 4.13557 6.9659 4.20888C6.89992 4.27487 6.81927 4.30786 6.72396 4.30786H6.02016C5.92485 4.30786 5.84054 4.27487 5.76723 4.20888C5.70125 4.13557 5.66826 4.05126 5.66826 3.95595V3.25215C5.66826 3.15684 5.70125 3.0762 5.76723 3.01022C5.84054 2.93691 5.92485 2.90025 6.02016 2.90025H6.72396C6.81927 2.90025 6.89992 2.93691 6.9659 3.01022C7.03921 3.0762 7.07587 3.15684 7.07587 3.25215ZM12.7063 6.06736V6.77117C12.7063 6.86647 12.6696 6.95078 12.5963 7.0241C12.5303 7.09008 12.4497 7.12307 12.3544 7.12307H11.6506C11.5553 7.12307 11.471 7.09008 11.3977 7.0241C11.3317 6.95078 11.2987 6.86647 11.2987 6.77117V6.06736C11.2987 5.97206 11.3317 5.89141 11.3977 5.82543C11.471 5.75212 11.5553 5.71546 11.6506 5.71546H12.3544C12.4497 5.71546 12.5303 5.75212 12.5963 5.82543C12.6696 5.89141 12.7063 5.97206 12.7063 6.06736ZM9.89108 3.25215V3.95595C9.89108 4.05126 9.85442 4.13557 9.78111 4.20888C9.71513 4.27487 9.63449 4.30786 9.53918 4.30786H8.83538C8.74007 4.30786 8.65576 4.27487 8.58245 4.20888C8.51646 4.13557 8.48347 4.05126 8.48347 3.95595V3.25215C8.48347 3.15684 8.51646 3.0762 8.58245 3.01022C8.65576 2.93691 8.74007 2.90025 8.83538 2.90025H9.53918C9.63449 2.90025 9.71513 2.93691 9.78111 3.01022C9.85442 3.0762 9.89108 3.15684 9.89108 3.25215ZM12.7063 3.25215V3.95595C12.7063 4.05126 12.6696 4.13557 12.5963 4.20888C12.5303 4.27487 12.4497 4.30786 12.3544 4.30786H11.6506C11.5553 4.30786 11.471 4.27487 11.3977 4.20888C11.3317 4.13557 11.2987 4.05126 11.2987 3.95595V3.25215C11.2987 3.15684 11.3317 3.0762 11.3977 3.01022C11.471 2.93691 11.5553 2.90025 11.6506 2.90025H12.3544C12.4497 2.90025 12.5303 2.93691 12.5963 3.01022C12.6696 3.0762 12.7063 3.15684 12.7063 3.25215ZM9.89108 18.3839H14.1139V1.49264H1.44544V18.3839H5.66826V15.9206C5.66826 15.8253 5.70125 15.7447 5.76723 15.6787C5.84054 15.6054 5.92485 15.5687 6.02016 15.5687H9.53918C9.63449 15.5687 9.71513 15.6054 9.78111 15.6787C9.85442 15.7447 9.89108 15.8253 9.89108 15.9206V18.3839ZM15.5215 0.78884V19.0877C15.5215 19.2783 15.4519 19.4433 15.3126 19.5826C15.1733 19.7219 15.0083 19.7915 14.8177 19.7915H0.741636C0.551022 19.7915 0.386068 19.7219 0.246774 19.5826C0.107479 19.4433 0.0378322 19.2783 0.0378322 19.0877V0.78884C0.0378322 0.598226 0.107479 0.433272 0.246774 0.293978C0.386068 0.154683 0.551022 0.0850353 0.741636 0.0850353H14.8177C15.0083 0.0850353 15.1733 0.154683 15.3126 0.293978C15.4519 0.433272 15.5215 0.598226 15.5215 0.78884Z" fill="white"/>
</svg>
