<svg width="20" height="20" viewBox="0 0 20 20" fill="none" xmlns="http://www.w3.org/2000/svg">
<path d="M17.9169 5.31554C17.3082 5.57379 16.6551 5.74893 15.9689 5.82712C16.6696 5.42537 17.2059 4.78815 17.4601 4.03117C16.8029 4.40322 16.0774 4.67337 15.3044 4.81982C14.6854 4.18753 13.805 3.7937 12.8284 3.7937C10.9548 3.7937 9.43574 5.24826 9.43574 7.04123C9.43574 7.29552 9.4657 7.54389 9.52359 7.78139C6.70448 7.64581 4.20469 6.35254 2.53162 4.38738C2.23916 4.86631 2.07278 5.42436 2.07278 6.02006C2.07278 7.14711 2.67216 8.14156 3.58156 8.72336C3.02558 8.70556 2.50268 8.55911 2.04489 8.31569V8.35626C2.04489 9.92956 3.21471 11.2426 4.76583 11.5415C4.48164 11.6147 4.18196 11.6553 3.87194 11.6553C3.65287 11.6553 3.44102 11.6345 3.2333 11.5949C3.66525 12.8862 4.91775 13.8252 6.40172 13.851C5.2412 14.7217 3.7779 15.2392 2.18854 15.2392C1.9147 15.2392 1.64497 15.2234 1.37939 15.1947C2.88093 16.1179 4.66355 16.6562 6.57947 16.6562C12.8202 16.6562 16.2314 11.7067 16.2314 7.41429L16.2201 6.99376C16.8866 6.53855 17.4632 5.96663 17.9169 5.31554Z" fill="white"/>
</svg>
