<svg width="20" height="22" viewBox="0 0 20 22" fill="none" xmlns="http://www.w3.org/2000/svg">
<g clip-path="url(#clip0_1976_6928)">
<path d="M9.16666 3.66699H3.33333C2.8913 3.66699 2.46738 3.86015 2.15482 4.20396C1.84226 4.54778 1.66666 5.0141 1.66666 5.50033V18.3337C1.66666 18.8199 1.84226 19.2862 2.15482 19.63C2.46738 19.9738 2.8913 20.167 3.33333 20.167H15C15.442 20.167 15.8659 19.9738 16.1785 19.63C16.4911 19.2862 16.6667 18.8199 16.6667 18.3337V11.917" stroke="#0267FF" stroke-width="2" stroke-linecap="round" stroke-linejoin="round"/>
<path d="M15.4167 2.29122C15.7482 1.92655 16.1978 1.72168 16.6667 1.72168C17.1355 1.72168 17.5851 1.92655 17.9167 2.29122C18.2482 2.6559 18.4344 3.1505 18.4344 3.66622C18.4344 4.18195 18.2482 4.67655 17.9167 5.04122L10 13.7496L6.66666 14.6662L7.5 10.9996L15.4167 2.29122Z" stroke="#0267FF" stroke-width="2" stroke-linecap="round" stroke-linejoin="round"/>
</g>
<defs>
<clipPath id="clip0_1976_6928">
<rect width="20" height="22" fill="white"/>
</clipPath>
</defs>
</svg>
