<svg width="17" height="16" viewBox="0 0 17 16" fill="none" xmlns="http://www.w3.org/2000/svg">
<path d="M11.0689 13.8383C10.7877 12.2245 10.3189 10.5571 9.66267 8.83611H9.64258L9.62249 8.84616C9.51535 8.88633 9.37137 8.94325 9.19057 9.01692C9.00977 9.08388 8.6716 9.24794 8.17606 9.5091C7.68052 9.76357 7.22182 10.0381 6.79994 10.3328C6.37807 10.6207 5.93945 11.0024 5.4841 11.4779C5.02874 11.9533 4.68387 12.4488 4.4495 12.9645L4.29883 12.854C5.53097 13.8584 6.93053 14.3607 8.49749 14.3607C9.38142 14.3607 10.2386 14.1866 11.0689 13.8383ZM9.21066 7.74125C9.07003 7.41312 8.89258 7.04147 8.67829 6.62629C6.5957 7.24906 4.34236 7.56044 1.91825 7.56044C1.91155 7.60732 1.9082 7.67763 1.9082 7.77138C1.9082 8.60174 2.05552 9.39526 2.35017 10.152C2.64481 10.902 3.05999 11.575 3.5957 12.1709C3.93052 11.575 4.34236 11.0191 4.83119 10.5035C5.32673 9.9812 5.80552 9.56267 6.26758 9.24794C6.72963 8.93321 7.1649 8.662 7.57338 8.43433C7.98856 8.20665 8.32338 8.04593 8.57785 7.95218L8.9495 7.8216C8.97628 7.81491 9.01981 7.80486 9.08008 7.79147C9.14035 7.77138 9.18387 7.75464 9.21066 7.74125ZM8.13588 5.61178C7.33231 4.18544 6.51535 2.91982 5.68499 1.81491C4.76088 2.25017 3.9774 2.87294 3.33454 3.68321C2.69169 4.49348 2.26311 5.40419 2.04883 6.41535C4.07115 6.41535 6.10017 6.1475 8.13588 5.61178ZM15.0064 8.81602C13.6002 8.41424 12.2307 8.31714 10.8982 8.52473C11.4807 10.1252 11.9093 11.6955 12.1839 13.2357C12.9272 12.7334 13.5466 12.1006 14.0421 11.3372C14.5377 10.5671 14.8591 9.72674 15.0064 8.81602ZM6.92048 1.37294C6.91378 1.37294 6.90709 1.37629 6.90039 1.38299C6.90709 1.37629 6.91378 1.37294 6.92048 1.37294ZM12.8468 2.82941C11.608 1.7312 10.1582 1.18209 8.49749 1.18209C7.98856 1.18209 7.46959 1.24571 6.94057 1.37294C7.8178 2.51133 8.64146 3.79035 9.41155 5.21C9.87361 5.03589 10.3089 4.835 10.7174 4.60732C11.1258 4.37294 11.4473 4.16535 11.6816 3.98455C11.9227 3.80375 12.1437 3.6129 12.3446 3.412C12.5455 3.21111 12.6694 3.07718 12.7162 3.01022C12.7698 2.93656 12.8133 2.87629 12.8468 2.82941ZM15.0868 7.70107C15.0667 6.1475 14.5678 4.77473 13.5901 3.58276L13.5801 3.59281C13.5198 3.67316 13.4562 3.75687 13.3892 3.84392C13.3223 3.92428 13.1749 4.0716 12.9473 4.28589C12.7263 4.50017 12.4886 4.70442 12.2341 4.89861C11.9863 5.08611 11.6515 5.30375 11.2296 5.55151C10.8145 5.79258 10.3758 6.00687 9.91378 6.19437C10.0812 6.54928 10.2285 6.86736 10.3557 7.14861C10.3691 7.18209 10.3892 7.23901 10.416 7.31937C10.4495 7.39973 10.4763 7.45665 10.4964 7.49013C10.7374 7.45665 10.9852 7.43321 11.2397 7.41982C11.5008 7.40642 11.7486 7.39973 11.983 7.39973C12.2174 7.39973 12.4484 7.40642 12.6761 7.41982C12.9037 7.42651 13.118 7.43991 13.3189 7.46C13.5198 7.47339 13.7073 7.49013 13.8814 7.51022C14.0622 7.53031 14.2229 7.55375 14.3636 7.58053C14.5109 7.60062 14.6348 7.62071 14.7352 7.6408C14.8357 7.65419 14.9194 7.66758 14.9863 7.68098L15.0868 7.70107ZM15.1772 3.90419C15.8669 5.08276 16.2118 6.37183 16.2118 7.77138C16.2118 9.17093 15.8669 10.4633 15.1772 11.6486C14.4874 12.8272 13.5499 13.7613 12.3647 14.4511C11.1861 15.1408 9.89704 15.4857 8.49749 15.4857C7.09794 15.4857 5.80552 15.1408 4.62026 14.4511C3.44169 13.7613 2.50753 12.8272 1.8178 11.6486C1.12807 10.4633 0.783203 9.17093 0.783203 7.77138C0.783203 6.37183 1.12807 5.08276 1.8178 3.90419C2.50753 2.71892 3.44169 1.78142 4.62026 1.09169C5.80552 0.40196 7.09794 0.0570933 8.49749 0.0570933C9.89704 0.0570933 11.1861 0.40196 12.3647 1.09169C13.5499 1.78142 14.4874 2.71892 15.1772 3.90419Z" fill="white"/>
</svg>
