<svg width="21" height="16" viewBox="0 0 21 16" fill="none" xmlns="http://www.w3.org/2000/svg">
<path d="M20.6372 5.2565V13.9881C20.6372 14.4719 20.4649 14.8861 20.1203 15.2307C19.7757 15.5753 19.3615 15.7476 18.8776 15.7476H2.69017C2.20631 15.7476 1.79209 15.5753 1.44752 15.2307C1.10295 14.8861 0.930664 14.4719 0.930664 13.9881V5.2565C1.25324 5.61574 1.62347 5.93465 2.04135 6.21324C4.69528 8.01673 6.5171 9.28138 7.50683 10.0072C7.92471 10.3151 8.26195 10.557 8.51854 10.733C8.78247 10.9016 9.13071 11.0775 9.56325 11.2608C9.9958 11.4368 10.399 11.5248 10.7729 11.5248H10.7839H10.7949C11.1688 11.5248 11.572 11.4368 12.0046 11.2608C12.4371 11.0775 12.7817 10.9016 13.0383 10.733C13.3022 10.557 13.6431 10.3151 14.061 10.0072C15.3073 9.10543 17.1328 7.84078 19.5375 6.21324C19.9553 5.92732 20.3219 5.60841 20.6372 5.2565ZM20.6372 2.02341C20.6372 2.60258 20.4575 3.15609 20.0983 3.68394C19.7391 4.2118 19.2919 4.66267 18.7567 5.03657C16.0001 6.95003 14.2846 8.14136 13.6101 8.61057C13.5368 8.66189 13.3792 8.77552 13.1373 8.95147C12.9027 9.12009 12.7047 9.25939 12.5434 9.36935C12.3895 9.47199 12.1988 9.58929 11.9716 9.72126C11.7516 9.85322 11.5427 9.95219 11.3448 10.0182C11.1468 10.0842 10.9635 10.1171 10.7949 10.1171H10.7839H10.7729C10.6043 10.1171 10.421 10.0842 10.2231 10.0182C10.0251 9.95219 9.81252 9.85322 9.58525 9.72126C9.36531 9.58929 9.17469 9.47199 9.01341 9.36935C8.85945 9.25939 8.6615 9.12009 8.41957 8.95147C8.18497 8.77552 8.03101 8.66189 7.9577 8.61057C7.29055 8.14136 6.33016 7.47422 5.07651 6.60913C3.82286 5.7367 3.0714 5.21252 2.82214 5.03657C2.3676 4.72865 1.93872 4.3071 1.5355 3.77192C1.13227 3.2294 0.930664 2.72721 0.930664 2.26534C0.930664 1.6935 1.08096 1.21697 1.38154 0.835739C1.68945 0.454512 2.12566 0.263899 2.69017 0.263899H18.8776C19.3542 0.263899 19.7647 0.436184 20.1093 0.780754C20.4612 1.12532 20.6372 1.53954 20.6372 2.02341Z" fill="white"/>
</svg>
