<svg width="17" height="19" viewBox="0 0 17 19" fill="none" xmlns="http://www.w3.org/2000/svg">
<path d="M5.47656 15.979C5.47656 15.3093 4.92411 14.9745 3.8192 14.9745C2.76116 14.9745 2.23214 15.3227 2.23214 16.0191C2.23214 16.6955 2.80804 17.0337 3.95982 17.0337C4.97098 17.0337 5.47656 16.6821 5.47656 15.979ZM4.88393 8.39526C4.88393 7.98678 4.78348 7.64526 4.58259 7.37071C4.3817 7.09616 4.08371 6.95888 3.68862 6.95888C2.85826 6.95888 2.44308 7.44437 2.44308 8.41535C2.44308 9.31937 2.85826 9.77138 3.68862 9.77138C4.48549 9.77138 4.88393 9.31267 4.88393 8.39526ZM7.58594 5.1408V7.16982C7.34487 7.25017 7.08036 7.32383 6.79241 7.3908C6.89955 7.67875 6.95313 7.96 6.95313 8.23455C6.95313 9.085 6.70871 9.81156 6.21987 10.4142C5.73103 11.0102 5.07143 11.3852 4.24107 11.5392C3.97321 11.5928 3.77232 11.6832 3.63839 11.8104C3.51116 11.9377 3.44754 12.1319 3.44754 12.393C3.44754 12.6006 3.52121 12.7747 3.66853 12.9154C3.82254 13.0493 4.01674 13.1564 4.25112 13.2368C4.49219 13.3104 4.7567 13.3841 5.04464 13.4578C5.33259 13.5247 5.62054 13.6084 5.90848 13.7089C6.19643 13.8093 6.45759 13.9366 6.69196 14.0906C6.93304 14.2379 7.12723 14.4522 7.27455 14.7334C7.42857 15.008 7.50558 15.3361 7.50558 15.7178C7.50558 17.7535 6.29018 18.7714 3.85938 18.7714C3.39732 18.7714 2.96205 18.7279 2.55357 18.6408C2.14509 18.5604 1.7567 18.4232 1.38839 18.229C1.02009 18.0415 0.725446 17.7669 0.504464 17.4053C0.290179 17.0504 0.183036 16.6252 0.183036 16.1296C0.183036 15.0247 0.792411 14.2714 2.01116 13.8696V13.8294C1.5625 13.5549 1.33817 13.133 1.33817 12.5638C1.33817 11.8339 1.54911 11.3752 1.97098 11.1877V11.1475C1.48884 10.9868 1.08705 10.6252 0.765625 10.0627C0.450893 9.49348 0.293527 8.93767 0.293527 8.39526C0.293527 7.46446 0.611607 6.69102 1.24777 6.07495C1.88393 5.45218 2.67076 5.1408 3.60826 5.1408C4.25112 5.1408 4.8471 5.29816 5.39621 5.6129C6.05246 5.6129 6.78237 5.45553 7.58594 5.1408ZM10.7801 13.9901H8.55022C8.57701 13.6888 8.5904 13.2401 8.5904 12.6441V6.52696C8.5904 5.8975 8.57701 5.46892 8.55022 5.24125H10.7801C10.7533 5.46223 10.74 5.87741 10.74 6.48678V12.6441C10.74 13.2401 10.7533 13.6888 10.7801 13.9901ZM16.817 11.7602V13.729C16.3415 13.9901 15.7589 14.1207 15.0692 14.1207C14.654 14.1207 14.2958 14.0537 13.9944 13.9198C13.6931 13.7859 13.4587 13.6185 13.2913 13.4176C13.1239 13.2167 12.99 12.9555 12.8895 12.6341C12.7958 12.3127 12.7355 12.0046 12.7087 11.71C12.6819 11.4154 12.6685 11.0705 12.6685 10.6754V7.14973H12.6886V7.10955C12.6417 7.10955 12.5781 7.1062 12.4978 7.0995C12.4174 7.09281 12.3571 7.08946 12.317 7.08946C12.1763 7.08946 11.9788 7.10955 11.7243 7.14973V5.24125H12.6886V4.47785C12.6886 4.11625 12.6685 3.81825 12.6283 3.58388H14.9085C14.8683 3.85843 14.8482 4.41089 14.8482 5.24125H16.5658V7.14973C16.4654 7.14973 16.3181 7.14303 16.1239 7.12964C15.9364 7.11625 15.7958 7.10955 15.702 7.10955H14.8482V10.7758C14.8482 11.6531 15.1395 12.0917 15.7221 12.0917C16.1306 12.0917 16.4955 11.9812 16.817 11.7602ZM10.6395 1.22339C10.9007 1.51803 11.0312 1.85955 11.0312 2.24794C11.0312 2.63633 10.9007 2.97785 10.6395 3.2725C10.3783 3.56044 10.0569 3.70441 9.67522 3.70441C9.28683 3.70441 8.95871 3.56044 8.69085 3.2725C8.42299 2.97785 8.28906 2.63633 8.28906 2.24794C8.28906 1.85285 8.41964 1.50799 8.6808 1.21334C8.94866 0.9187 9.28013 0.771379 9.67522 0.771379C10.0636 0.771379 10.385 0.922048 10.6395 1.22339Z" fill="white"/>
</svg>
