<svg width="16" height="16" viewBox="0 0 16 16" fill="none" xmlns="http://www.w3.org/2000/svg">
<path d="M9.81557 9.58946C10.3178 9.08723 10.5689 8.4812 10.5689 7.77138C10.5689 7.06156 10.3178 6.45553 9.81557 5.9533C9.31334 5.45107 8.70731 5.19995 7.99749 5.19995C7.28767 5.19995 6.68164 5.45107 6.17941 5.9533C5.67718 6.45553 5.42606 7.06156 5.42606 7.77138C5.42606 8.4812 5.67718 9.08723 6.17941 9.58946C6.68164 10.0917 7.28767 10.3428 7.99749 10.3428C8.70731 10.3428 9.31334 10.0917 9.81557 9.58946ZM10.7999 4.96892C11.57 5.73901 11.9551 6.67317 11.9551 7.77138C11.9551 8.86959 11.57 9.80375 10.7999 10.5738C10.0299 11.3439 9.0957 11.729 7.99749 11.729C6.89928 11.729 5.96512 11.3439 5.19503 10.5738C4.42494 9.80375 4.0399 8.86959 4.0399 7.77138C4.0399 6.67317 4.42494 5.73901 5.19503 4.96892C5.96512 4.19883 6.89928 3.81379 7.99749 3.81379C9.0957 3.81379 10.0299 4.19883 10.7999 4.96892ZM12.7687 3.00017C12.9495 3.18098 13.0399 3.39861 13.0399 3.65308C13.0399 3.90754 12.9495 4.12517 12.7687 4.30598C12.5879 4.48678 12.3703 4.57718 12.1158 4.57718C11.8613 4.57718 11.6437 4.48678 11.4629 4.30598C11.2821 4.12517 11.1917 3.90754 11.1917 3.65308C11.1917 3.39861 11.2821 3.18098 11.4629 3.00017C11.6437 2.81937 11.8613 2.72897 12.1158 2.72897C12.3703 2.72897 12.5879 2.81937 12.7687 3.00017ZM8.76088 1.44325C8.29883 1.44325 8.04436 1.44325 7.99749 1.44325C7.95061 1.44325 7.6928 1.44325 7.22405 1.44325C6.762 1.43656 6.41044 1.43656 6.16936 1.44325C5.92829 1.44325 5.60352 1.4533 5.19503 1.47339C4.79325 1.48678 4.44838 1.52026 4.16044 1.57383C3.87919 1.62071 3.64146 1.68098 3.44727 1.75464C3.11244 1.88857 2.8178 2.08276 2.56334 2.33723C2.30887 2.59169 2.11468 2.88633 1.98075 3.22116C1.90709 3.41535 1.84347 3.65642 1.7899 3.94437C1.74302 4.22562 1.70954 4.57049 1.68945 4.97897C1.67606 5.38075 1.66602 5.70218 1.65932 5.94325C1.65932 6.18433 1.65932 6.53924 1.65932 7.00799C1.66602 7.47004 1.66936 7.7245 1.66936 7.77138C1.66936 7.81825 1.66602 8.07607 1.65932 8.54482C1.65932 9.00687 1.65932 9.35843 1.65932 9.5995C1.66602 9.84058 1.67606 10.1654 1.68945 10.5738C1.70954 10.9756 1.74302 11.3205 1.7899 11.6084C1.84347 11.8897 1.90709 12.1274 1.98075 12.3216C2.11468 12.6564 2.30887 12.9511 2.56334 13.2055C2.8178 13.46 3.11244 13.6542 3.44727 13.7881C3.64146 13.8618 3.87919 13.9254 4.16044 13.979C4.44838 14.0258 4.79325 14.0593 5.19503 14.0794C5.60352 14.0928 5.92829 14.1029 6.16936 14.1095C6.41044 14.1095 6.762 14.1095 7.22405 14.1095C7.6928 14.1029 7.95061 14.0995 7.99749 14.0995C8.04436 14.0995 8.29883 14.1029 8.76088 14.1095C9.22963 14.1095 9.58454 14.1095 9.82561 14.1095C10.0667 14.1029 10.3881 14.0928 10.7899 14.0794C11.1984 14.0593 11.5432 14.0258 11.8245 13.979C12.1124 13.9254 12.3535 13.8618 12.5477 13.7881C12.8825 13.6542 13.1772 13.46 13.4316 13.2055C13.6861 12.9511 13.8803 12.6564 14.0142 12.3216C14.0879 12.1274 14.1482 11.8897 14.195 11.6084C14.2486 11.3205 14.2821 10.9756 14.2955 10.5738C14.3156 10.1654 14.3256 9.84058 14.3256 9.5995C14.3323 9.35843 14.3323 9.00687 14.3256 8.54482C14.3256 8.07607 14.3256 7.81825 14.3256 7.77138C14.3256 7.7245 14.3256 7.47004 14.3256 7.00799C14.3323 6.53924 14.3323 6.18433 14.3256 5.94325C14.3256 5.70218 14.3156 5.38075 14.2955 4.97897C14.2821 4.57049 14.2486 4.22562 14.195 3.94437C14.1482 3.65642 14.0879 3.41535 14.0142 3.22116C13.8803 2.88633 13.6861 2.59169 13.4316 2.33723C13.1772 2.08276 12.8825 1.88857 12.5477 1.75464C12.3535 1.68098 12.1124 1.62071 11.8245 1.57383C11.5432 1.52026 11.1984 1.48678 10.7899 1.47339C10.3881 1.4533 10.0667 1.44325 9.82561 1.44325C9.58454 1.43656 9.22963 1.43656 8.76088 1.44325ZM15.6616 4.58723C15.695 5.17651 15.7118 6.2379 15.7118 7.77138C15.7118 9.30486 15.695 10.3662 15.6616 10.9555C15.5946 12.3484 15.1794 13.4265 14.416 14.1899C13.6526 14.9533 12.5745 15.3685 11.1816 15.4354C10.5924 15.4689 9.53097 15.4857 7.99749 15.4857C6.46401 15.4857 5.40262 15.4689 4.81334 15.4354C3.42048 15.3685 2.34235 14.9533 1.57896 14.1899C0.815569 13.4265 0.400391 12.3484 0.333426 10.9555C0.299944 10.3662 0.283203 9.30486 0.283203 7.77138C0.283203 6.2379 0.299944 5.17651 0.333426 4.58723C0.400391 3.19437 0.815569 2.11625 1.57896 1.35285C2.34235 0.589459 3.42048 0.174281 4.81334 0.107317C5.40262 0.0738345 6.46401 0.0570933 7.99749 0.0570933C9.53097 0.0570933 10.5924 0.0738345 11.1816 0.107317C12.5745 0.174281 13.6526 0.589459 14.416 1.35285C15.1794 2.11625 15.5946 3.19437 15.6616 4.58723Z" fill="white"/>
</svg>
