<svg width="19" height="16" viewBox="0 0 19 16" fill="none" xmlns="http://www.w3.org/2000/svg">
<path d="M6.49665 3.00017V14.7825C6.49665 14.95 6.45313 15.0906 6.36607 15.2044C6.28571 15.325 6.16518 15.3852 6.00446 15.3852C5.89063 15.3852 5.78013 15.3584 5.67299 15.3049L1.00223 12.9645C0.861607 12.8975 0.741071 12.787 0.640625 12.633C0.546875 12.4723 0.5 12.3149 0.5 12.1609V0.709996C0.5 0.576067 0.533482 0.462227 0.600446 0.368477C0.667411 0.274727 0.764509 0.227852 0.891741 0.227852C0.985491 0.227852 1.13281 0.278075 1.33371 0.378522L6.46652 2.94995C6.48661 2.97004 6.49665 2.98678 6.49665 3.00017ZM7.13951 4.01468L12.5033 12.7133L7.13951 10.0415V4.01468ZM18.5 4.19549V14.7825C18.5 14.95 18.4531 15.0839 18.3594 15.1843C18.2656 15.2915 18.1384 15.345 17.9777 15.345C17.817 15.345 17.6596 15.3015 17.5056 15.2145L13.0759 13.0046L18.5 4.19549ZM18.4699 2.99013C18.4699 3.01022 17.6094 4.41647 15.8884 7.20888C14.1741 9.99459 13.1696 11.6252 12.875 12.1006L8.95759 5.73232L12.2121 0.43879C12.3259 0.25129 12.5 0.15754 12.7344 0.15754C12.8281 0.15754 12.9152 0.177629 12.9955 0.217808L18.4297 2.92986C18.4565 2.94325 18.4699 2.96334 18.4699 2.99013Z" fill="white"/>
</svg>
