<svg width="16" height="16" viewBox="0 0 16 16" fill="none" xmlns="http://www.w3.org/2000/svg">
<path d="M15.5215 12.4485C15.5215 12.6465 15.4849 12.9067 15.4115 13.2293C15.3382 13.5445 15.2612 13.7938 15.1806 13.9771C15.0266 14.3437 14.5794 14.7322 13.839 15.1428C13.1498 15.5167 12.468 15.7036 11.7935 15.7036C11.5956 15.7036 11.4013 15.6926 11.2107 15.6706C11.0201 15.6413 10.8075 15.5936 10.5729 15.5277C10.3456 15.4617 10.1733 15.4104 10.056 15.3737C9.94606 15.3297 9.74445 15.2527 9.4512 15.1428C9.15795 15.0328 8.97834 14.9668 8.91235 14.9448C8.19389 14.6882 7.5524 14.384 6.98789 14.0321C6.05682 13.4529 5.08909 12.6611 4.0847 11.6567C3.08032 10.6524 2.28854 9.68463 1.70937 8.75355C1.35746 8.18905 1.05322 7.54756 0.79662 6.82909C0.774626 6.76311 0.708645 6.58349 0.598676 6.29024C0.488706 5.99699 0.411728 5.79538 0.36774 5.68541C0.331084 5.56811 0.279765 5.39583 0.213783 5.16856C0.147801 4.93395 0.100148 4.72135 0.070823 4.53073C0.0488291 4.34012 0.0378322 4.14584 0.0378322 3.9479C0.0378322 3.27342 0.22478 2.59161 0.598676 1.90247C1.00923 1.16201 1.39779 0.7148 1.76435 0.560843C1.94763 0.480198 2.1969 0.40322 2.51214 0.329907C2.83472 0.256594 3.09498 0.219938 3.29292 0.219938C3.39556 0.219938 3.47254 0.230935 3.52386 0.252929C3.65582 0.296916 3.8501 0.575505 4.1067 1.0887C4.18734 1.22799 4.29731 1.42593 4.4366 1.68253C4.5759 1.93912 4.7042 2.17373 4.8215 2.38633C4.9388 2.59161 5.05243 2.78589 5.1624 2.96917C5.18439 2.9985 5.24671 3.09014 5.34935 3.24409C5.45932 3.39805 5.53996 3.53001 5.59128 3.63998C5.6426 3.74262 5.66826 3.84526 5.66826 3.9479C5.66826 4.09452 5.56196 4.2778 5.34935 4.49774C5.14407 4.71768 4.9168 4.91929 4.66754 5.10257C4.42561 5.28586 4.19834 5.48013 3.98573 5.68541C3.78045 5.89069 3.67782 6.05931 3.67782 6.19127C3.67782 6.25725 3.69614 6.34156 3.7328 6.4442C3.76946 6.53951 3.79878 6.61282 3.82078 6.66414C3.8501 6.71546 3.90142 6.80343 3.97473 6.92806C4.05538 7.0527 4.09936 7.12234 4.1067 7.13701C4.66387 8.14139 5.3017 9.00282 6.02016 9.72128C6.73863 10.4398 7.60005 11.0776 8.60444 11.6347C8.6191 11.6421 8.68875 11.6861 8.81338 11.7667C8.93801 11.84 9.02599 11.8913 9.07731 11.9207C9.12863 11.9427 9.20194 11.972 9.29725 12.0086C9.39988 12.0453 9.48419 12.0636 9.55018 12.0636C9.68214 12.0636 9.85076 11.961 10.056 11.7557C10.2613 11.5431 10.4556 11.3158 10.6389 11.0739C10.8222 10.8246 11.0238 10.5974 11.2437 10.3921C11.4636 10.1795 11.6469 10.0732 11.7935 10.0732C11.8962 10.0732 11.9988 10.0988 12.1015 10.1502C12.2114 10.2015 12.3434 10.2821 12.4974 10.3921C12.6513 10.4947 12.743 10.5571 12.7723 10.579C12.9556 10.689 13.1498 10.8026 13.3551 10.9199C13.5677 11.0372 13.8023 11.1655 14.0589 11.3048C14.3155 11.4441 14.5135 11.5541 14.6528 11.6347C15.1659 11.8913 15.4445 12.0856 15.4885 12.2176C15.5105 12.2689 15.5215 12.3459 15.5215 12.4485Z" fill="white"/>
</svg>
