<svg width="17" height="16" viewBox="0 0 17 16" fill="none" xmlns="http://www.w3.org/2000/svg">
<path d="M12.5656 9.44883C12.5656 9.11401 12.4986 8.80933 12.3647 8.53477C12.2374 8.25352 12.0767 8.0225 11.8825 7.84169C11.6883 7.66089 11.4439 7.49683 11.1493 7.3495C10.8546 7.20218 10.5767 7.08834 10.3156 7.00799C10.0611 6.92763 9.76981 6.85062 9.44169 6.77696L8.39704 6.53589C8.19615 6.48901 8.04883 6.45553 7.95508 6.43544C7.86133 6.40866 7.74414 6.36848 7.60352 6.31491C7.46289 6.26133 7.36244 6.20776 7.30218 6.15419C7.24191 6.10062 7.18499 6.03031 7.13142 5.94325C7.08454 5.8562 7.06111 5.75575 7.06111 5.64191C7.06111 5.12629 7.54325 4.86848 8.50753 4.86848C8.79548 4.86848 9.05329 4.90866 9.28097 4.98901C9.50865 5.06937 9.68945 5.16647 9.82338 5.28031C9.95731 5.38745 10.0845 5.49794 10.2051 5.61178C10.3256 5.72562 10.4595 5.82272 10.6069 5.90308C10.7542 5.98343 10.9149 6.02361 11.089 6.02361C11.4037 6.02361 11.6549 5.91647 11.8424 5.70218C12.0366 5.4879 12.1336 5.23008 12.1336 4.92875C12.1336 4.56044 11.9461 4.22897 11.5711 3.93433C11.1961 3.63299 10.7207 3.40531 10.1448 3.25129C9.56892 3.09727 8.95954 3.02026 8.31669 3.02026C7.86133 3.02026 7.41936 3.07383 6.99079 3.18098C6.56222 3.28142 6.16044 3.43879 5.78544 3.65308C5.41713 3.86066 5.11914 4.15196 4.89146 4.52696C4.67048 4.89526 4.55999 5.32383 4.55999 5.81267C4.55999 6.22116 4.62361 6.57942 4.75084 6.88745C4.87807 7.18879 5.06557 7.43991 5.31334 7.6408C5.56111 7.84169 5.82896 8.00575 6.11691 8.13299C6.40486 8.25352 6.74972 8.36067 7.15151 8.45442L8.61802 8.81602C9.2207 8.96334 9.5957 9.08388 9.74302 9.17763C9.95731 9.31156 10.0645 9.51245 10.0645 9.78031C10.0645 10.0415 9.93052 10.2591 9.66267 10.4332C9.39481 10.6006 9.04325 10.6843 8.60798 10.6843C8.26646 10.6843 7.95843 10.6308 7.68387 10.5236C7.41602 10.4165 7.19838 10.2892 7.03097 10.1419C6.87026 9.9879 6.71959 9.83723 6.57896 9.68991C6.43834 9.53589 6.28432 9.40531 6.11691 9.29817C5.9495 9.19102 5.76869 9.13745 5.5745 9.13745C5.23968 9.13745 4.98521 9.2379 4.81111 9.43879C4.64369 9.63968 4.55999 9.8908 4.55999 10.1921C4.55999 10.8082 4.96847 11.3372 5.78544 11.7792C6.6024 12.2145 7.57673 12.4321 8.70843 12.4321C9.19727 12.4321 9.66602 12.3718 10.1147 12.2513C10.5633 12.1241 10.9718 11.9433 11.3401 11.7089C11.7151 11.4745 12.0131 11.1631 12.2341 10.7747C12.4551 10.3796 12.5656 9.93767 12.5656 9.44883ZM16.2118 11.6285C16.2118 12.6933 15.8334 13.6006 15.0767 14.3506C14.3267 15.1073 13.4194 15.4857 12.3546 15.4857C11.4841 15.4857 10.7006 15.2178 10.0042 14.6821C9.48856 14.7892 8.98633 14.8428 8.49749 14.8428C7.5399 14.8428 6.62249 14.6553 5.74526 14.2803C4.87472 13.912 4.12137 13.4131 3.48521 12.7837C2.85575 12.1475 2.35352 11.3941 1.97852 10.5236C1.61021 9.64638 1.42606 8.72897 1.42606 7.77138C1.42606 7.28254 1.47963 6.78031 1.58677 6.26468C1.05106 5.56825 0.783203 4.78477 0.783203 3.91424C0.783203 2.8495 1.1582 1.94214 1.9082 1.19214C2.6649 0.435441 3.57561 0.0570933 4.64035 0.0570933C5.51088 0.0570933 6.29436 0.32495 6.99079 0.860665C7.50642 0.753522 8.00865 0.69995 8.49749 0.69995C9.45508 0.69995 10.3691 0.88745 11.2397 1.26245C12.1169 1.63075 12.8703 2.13299 13.4997 2.76915C14.1359 3.39861 14.6381 4.15196 15.0064 5.02919C15.3814 5.89973 15.5689 6.81379 15.5689 7.77138C15.5689 8.26022 15.5153 8.76245 15.4082 9.27808C15.9439 9.9745 16.2118 10.758 16.2118 11.6285Z" fill="white"/>
</svg>
