<svg width="20" height="20" viewBox="0 0 20 20" fill="none" xmlns="http://www.w3.org/2000/svg">
<path d="M14.529 1.56073L12.3419 1.55713C9.88473 1.55713 8.29683 3.23064 8.29683 5.82083V7.78669H6.09781C5.90778 7.78669 5.75391 7.94494 5.75391 8.14013V10.9884C5.75391 11.1836 5.90796 11.3417 6.09781 11.3417H8.29683V18.5289C8.29683 18.7241 8.45071 18.8821 8.64073 18.8821H11.5098C11.6999 18.8821 11.8537 18.7239 11.8537 18.5289V11.3417H14.4249C14.6149 11.3417 14.7688 11.1836 14.7688 10.9884L14.7699 8.14013C14.7699 8.04641 14.7335 7.95665 14.6691 7.89032C14.6048 7.824 14.517 7.78669 14.4258 7.78669H11.8537V6.12021C11.8537 5.31923 12.0395 4.91262 13.0553 4.91262L14.5286 4.91208C14.7184 4.91208 14.8723 4.75383 14.8723 4.55881V1.914C14.8723 1.71916 14.7186 1.56109 14.529 1.56073Z" fill="white"/>
</svg>
