<svg width="20" height="20" viewBox="0 0 20 20" fill="none" xmlns="http://www.w3.org/2000/svg">
<path fill-rule="evenodd" clip-rule="evenodd" d="M2.27319 10.2195C2.27319 8.26594 2.27319 7.28916 2.50712 6.49248C3.06081 4.60678 4.53549 3.1321 6.42119 2.57841C7.21787 2.34448 8.19465 2.34448 10.1482 2.34448C12.1017 2.34448 13.0785 2.34448 13.8752 2.57841C15.7609 3.1321 17.2356 4.60678 17.7893 6.49248C18.0232 7.28916 18.0232 8.26594 18.0232 10.2195C18.0232 12.173 18.0232 13.1498 17.7893 13.9465C17.2356 15.8322 15.7609 17.3069 13.8752 17.8606C13.0785 18.0945 12.1017 18.0945 10.1482 18.0945C8.19465 18.0945 7.21787 18.0945 6.42119 17.8606C4.53549 17.3069 3.06081 15.8322 2.50712 13.9465C2.27319 13.1498 2.27319 12.173 2.27319 10.2195ZM10.1481 6.05055C7.84573 6.05055 5.979 7.91727 5.979 10.2197C5.979 12.5221 7.84573 14.3888 10.1481 14.3888C12.4505 14.3888 14.3172 12.5221 14.3172 10.2197C14.3172 7.91727 12.4505 6.05055 10.1481 6.05055ZM10.1481 12.8254C8.71186 12.8254 7.54242 11.6559 7.54242 10.2197C7.54242 8.78236 8.71186 7.61397 10.1481 7.61397C11.5844 7.61397 12.7538 8.78236 12.7538 10.2197C12.7538 11.6559 11.5844 12.8254 10.1481 12.8254ZM15.1855 5.73758C15.1855 6.04439 14.9368 6.29311 14.63 6.29311C14.3232 6.29311 14.0745 6.04439 14.0745 5.73758C14.0745 5.43077 14.3232 5.18204 14.63 5.18204C14.9368 5.18204 15.1855 5.43077 15.1855 5.73758Z" fill="white"/>
</svg>
