<svg width="20" height="20" viewBox="0 0 20 20" fill="none" xmlns="http://www.w3.org/2000/svg">
<path d="M17.5194 18.0945V18.0939H17.5234V12.3175C17.5234 9.49172 16.915 7.31494 13.6114 7.31494C12.0233 7.31494 10.9576 8.18644 10.5225 9.01266H10.4765V7.57875H7.34424V18.0939H10.6058V12.8872C10.6058 11.5163 10.8657 10.1906 12.5634 10.1906C14.2362 10.1906 14.2611 11.7551 14.2611 12.9751V18.0945H17.5194Z" fill="white"/>
<path d="M2.0332 7.57935H5.2987V18.0944H2.0332V7.57935Z" fill="white"/>
<path d="M3.66451 2.34448C2.62041 2.34448 1.77319 3.1917 1.77319 4.2358C1.77319 5.27989 2.62041 6.14483 3.66451 6.14483C4.7086 6.14483 5.55582 5.27989 5.55582 4.2358C5.55516 3.1917 4.70794 2.34448 3.66451 2.34448V2.34448Z" fill="white"/>
</svg>
