<svg width="134" height="30" viewBox="0 0 134 30" fill="none" xmlns="http://www.w3.org/2000/svg">
<g clip-path="url(#clip0_1976_6782)">
<path d="M0 28.0807V4.37941C0 3.79049 0.114443 3.23369 0.34333 2.70902C0.572217 2.18435 0.88361 1.72392 1.27485 1.32774C1.66875 0.931561 2.12652 0.618363 2.64817 0.390827C3.16982 0.160614 3.76067 0.0455073 4.41805 0.0455073C6.47537 0.0455073 7.8274 0.915499 8.47148 2.65548L11.9021 11.7569C11.9447 11.8854 11.9766 12.0112 11.9979 12.1344C12.0192 12.2575 12.0299 12.3967 12.0299 12.5547C12.0299 13.0874 11.8489 13.529 11.4843 13.8797C11.1196 14.2331 10.6512 14.4071 10.079 14.4071C9.67979 14.4071 9.32581 14.3027 9.01708 14.0939C8.70835 13.8851 8.4768 13.5719 8.31977 13.157L5.10471 4.09833C4.99027 3.86812 4.81195 3.75301 4.56975 3.75301C4.15456 3.75301 3.94697 3.96181 3.94697 4.37941V28.0833C3.94697 28.6294 3.76599 29.0765 3.40137 29.4218C3.03674 29.7671 2.55502 29.9384 1.95352 29.9384C1.35203 29.9384 0.878287 29.7671 0.526972 29.4218C0.175657 29.0765 0.00266148 28.6321 0.00266148 28.0833L0 28.0807ZM18.271 1.94075C18.271 1.40805 18.4467 0.95833 18.7953 0.591595C19.1467 0.224859 19.6204 0.0428304 20.2219 0.0428304C20.8234 0.0428304 21.3051 0.224859 21.6697 0.591595C22.0344 0.95833 22.2153 1.40805 22.2153 1.94075V25.6206C22.2153 26.2095 22.1036 26.7636 21.8827 27.2803C21.6618 27.7969 21.3583 28.2547 20.9724 28.6508C20.5865 29.047 20.1314 29.3602 19.6098 29.5878C19.0881 29.818 18.4919 29.9331 17.8186 29.9331C15.7613 29.9331 14.4012 29.0711 13.7439 27.3445L10.3132 18.0717C10.2706 17.9138 10.2387 17.7746 10.2174 17.6515C10.1961 17.5283 10.1855 17.4025 10.1855 17.274C10.1855 16.7413 10.3611 16.2916 10.7098 15.9249C11.0611 15.5581 11.5215 15.3761 12.0937 15.3761C12.4664 15.3761 12.8123 15.4778 13.1344 15.6786C13.4564 15.8794 13.696 16.1899 13.853 16.6048L17.1772 25.8347C17.2197 26.0944 17.3981 26.2229 17.7121 26.2229C18.0847 26.2229 18.2684 26.0221 18.2684 25.6179V1.94075H18.271ZM32.7016 18.4626C32.7016 17.9299 32.8586 17.4801 33.1726 17.1134C33.4867 16.7467 33.9099 16.5646 34.4368 16.5646H42.6502V16.1096C42.6502 15.3734 42.5251 14.6748 42.2749 14.0109C42.0247 13.347 41.6734 12.7688 41.2236 12.2789C40.7738 11.7891 40.2362 11.3982 39.6161 11.1091C38.9959 10.82 38.2401 10.6755 37.3538 10.6755C36.6246 10.6755 35.9352 10.812 35.2858 11.0877C34.6364 11.3608 34.0642 11.7328 33.5692 12.2013C33.0768 12.6698 32.7016 13.2212 32.4434 13.8556C32.1852 14.49 32.0575 15.1673 32.0575 15.8901C32.0575 16.4388 31.8792 16.8912 31.5225 17.2526C31.1659 17.614 30.6788 17.7933 30.064 17.7933C29.4918 17.7933 29.0234 17.622 28.6588 17.2767C28.2941 16.9314 28.1132 16.471 28.1132 15.8954C28.1132 14.6453 28.366 13.4755 28.8744 12.3914C29.3827 11.3072 30.0454 10.3569 30.8678 9.54314C31.6902 8.73204 32.651 8.09226 33.7528 7.62381C34.8547 7.15803 36.055 6.92246 37.3565 6.92246C38.7857 6.92246 40.0446 7.16606 41.1304 7.65593C42.2163 8.1458 43.1665 8.80967 43.9835 9.65022C44.798 10.4908 45.4367 11.4652 45.9025 12.5734C46.3656 13.6816 46.5998 14.8595 46.5998 16.1096V18.4599C46.5998 18.7195 46.5492 18.9631 46.4507 19.1934C46.3496 19.4236 46.2139 19.6217 46.0435 19.7876C45.8732 19.9536 45.6709 20.0821 45.442 20.1758C45.2132 20.2695 44.971 20.315 44.7128 20.315H34.4422C33.9125 20.315 33.492 20.1383 33.178 19.7876C32.8639 19.4343 32.7069 18.9926 32.7069 18.4626H32.7016ZM41.7719 25.7518C42.2296 25.7518 42.6395 25.9338 43.0041 26.3005C43.3687 26.6673 43.5497 27.117 43.5497 27.6497C43.5497 28.1824 43.3687 28.6241 43.0041 28.9747C42.6395 29.3281 42.2296 29.5021 41.7719 29.5021H37.0105C35.6957 29.5021 34.506 29.2906 33.4414 28.865C32.3769 28.442 31.4427 27.8505 30.6442 27.0956C29.8431 26.3407 29.2203 25.4412 28.7785 24.3999C28.3341 23.3586 28.1132 22.2183 28.1132 20.9815C28.1132 20.4488 28.2888 19.9991 28.6375 19.6324C28.9888 19.2656 29.4625 19.0836 30.064 19.0836C30.6655 19.0836 31.1659 19.2656 31.5225 19.6324C31.8792 19.9991 32.0575 20.4488 32.0575 20.9815C32.0575 21.6856 32.1639 22.3307 32.3795 22.9116C32.5951 23.4951 32.9251 23.9984 33.3776 24.4213C33.8274 24.8443 34.365 25.1736 34.9851 25.4038C35.6079 25.634 36.2812 25.7491 37.0105 25.7491H41.7719V25.7518ZM68.0406 8.84179C68.0406 9.04256 68.0167 9.23798 67.9661 9.42536C67.9155 9.61274 67.8277 9.80012 67.6973 9.98483L53.4584 29.1595C53.2588 29.4191 53.0139 29.6118 52.7292 29.743C52.4444 29.8715 52.149 29.9358 51.8509 29.9358C51.3079 29.9358 50.8608 29.7591 50.5095 29.4084C50.1582 29.0551 49.9852 28.6 49.9852 28.0378C49.9852 27.6631 50.1209 27.2829 50.3924 26.8948L64.61 7.72017C64.9959 7.2303 65.5042 6.9867 66.1323 6.9867C66.4038 6.9867 66.654 7.03221 66.8829 7.1259C67.1118 7.21959 67.3114 7.35344 67.4844 7.52476C67.6574 7.69608 67.7905 7.89417 67.8916 8.11903C67.9927 8.34122 68.0406 8.58214 68.0406 8.84179ZM58.3262 13.3283C58.3262 13.8744 58.1479 14.3214 57.7913 14.6667C57.4346 15.012 56.9609 15.1834 56.3754 15.1834C56.0746 15.1834 55.8005 15.1298 55.5503 15.0228C55.3001 14.9157 55.0739 14.7524 54.8743 14.5382L51.0578 10.116C50.757 9.72785 50.608 9.31828 50.608 8.8873C50.608 8.34122 50.7863 7.88882 51.1429 7.52744C51.4996 7.16606 51.9866 6.98938 52.6014 6.98938C53.2162 6.98938 53.7086 7.20621 54.1238 7.63719L57.8977 12.1023C58.0548 12.303 58.1666 12.5091 58.2304 12.7179C58.2943 12.9267 58.3262 13.1302 58.3262 13.3336V13.3283ZM69.4565 28.0807C69.4565 28.6268 69.2756 29.0738 68.9109 29.4191C68.5463 29.7644 68.0566 29.9358 67.4418 29.9358C67.1118 29.9358 66.8243 29.8822 66.5742 29.7751C66.324 29.6681 66.0978 29.5048 65.8981 29.2906L61.2006 23.7682C61.001 23.538 60.86 23.3158 60.7828 23.099C60.7029 22.8821 60.6657 22.6599 60.6657 22.4297C60.6657 21.897 60.8413 21.4473 61.19 21.0806C61.5413 20.7138 62.0017 20.5318 62.574 20.5318C62.888 20.5318 63.1781 20.588 63.4416 20.7031C63.7051 20.8182 63.9393 20.9976 64.1389 21.2412L68.9642 26.8065C69.1212 27.0072 69.2436 27.208 69.3288 27.4114C69.4139 27.6122 69.4565 27.8344 69.4565 28.0807ZM91.1156 13.9975C91.1156 14.5302 90.932 14.9719 90.5674 15.3252C90.2027 15.6786 89.7263 15.8526 89.1408 15.8526C88.6404 15.8526 88.2359 15.7348 87.9298 15.4966C87.6238 15.2583 87.4109 14.9532 87.2964 14.5811L84.5737 4.37941C84.446 3.96181 84.1958 3.75301 83.8232 3.75301C83.4932 3.75301 83.2669 3.96181 83.1365 4.37941L76.1661 28.6214C76.0384 29.039 75.8095 29.3736 75.4795 29.6252C75.1494 29.8769 74.7422 30.0027 74.2578 30.0027C73.643 30.0027 73.156 29.826 72.7993 29.4753C72.4427 29.122 72.2644 28.6803 72.2644 28.1476V27.8879C72.2644 27.8156 72.2777 27.738 72.307 27.6497L79.469 3.25779C79.6127 2.78397 79.823 2.34764 80.1024 1.95414C80.3819 1.55795 80.7093 1.21263 81.0898 0.918176C81.4678 0.623717 81.883 0.396181 82.3328 0.238244C82.7825 0.0803069 83.2802 0 83.8232 0C84.3661 0 84.8958 0.0803069 85.3668 0.238244C85.8379 0.396181 86.2611 0.623717 86.631 0.918176C87.0036 1.21263 87.323 1.55795 87.5945 1.95414C87.866 2.35032 88.0656 2.78397 88.196 3.25779L91.0704 13.5237C91.0997 13.6094 91.113 13.6923 91.113 13.7726V14.0002L91.1156 13.9975ZM95.2755 28.2332C95.2755 28.4768 95.2249 28.7071 95.1265 28.9239C95.0253 29.1407 94.8896 29.3254 94.7193 29.486C94.5489 29.644 94.3467 29.7698 94.1178 29.8635C93.8889 29.9572 93.6094 30.0027 93.2821 30.0027C92.7684 30.0027 92.3505 29.8769 92.0285 29.6252C91.7065 29.3736 91.4882 29.039 91.3738 28.6214L89.2712 20.9869H82.7533C82.2236 20.9869 81.8031 20.8102 81.4891 20.4595C81.175 20.1062 81.018 19.6645 81.018 19.1345C81.018 18.6044 81.175 18.152 81.4891 17.7853C81.8031 17.4186 82.2263 17.2365 82.7533 17.2365H90.8362C91.8076 17.2365 92.4224 17.705 92.6806 18.6392L95.1877 27.655C95.217 27.7701 95.2383 27.8719 95.2516 27.9575C95.2649 28.0432 95.2729 28.1369 95.2729 28.2386L95.2755 28.2332ZM100.529 13.1998C100.529 12.3807 100.689 11.6151 101.011 10.903C101.333 10.191 101.762 9.56456 102.296 9.0265C102.831 8.48844 103.457 8.06282 104.173 7.75497C104.889 7.44713 105.666 7.29187 106.51 7.29187H106.917L110.347 7.37753C110.92 7.40698 111.359 7.59704 111.665 7.95039C111.971 8.30374 112.125 8.74543 112.125 9.27545C112.125 9.53511 112.083 9.77871 111.998 10.0089C111.912 10.2391 111.793 10.4399 111.644 10.6139C111.495 10.7879 111.3 10.9191 111.066 11.0128C110.829 11.1065 110.576 11.1466 110.305 11.1305L106.51 11.0449C106.209 11.0315 105.929 11.0797 105.674 11.1948C105.416 11.3099 105.192 11.4652 104.998 11.6579C104.804 11.8533 104.668 12.0808 104.591 12.3485C104.511 12.6135 104.474 12.8973 104.474 13.1998V28.0807C104.474 28.6268 104.29 29.0738 103.928 29.4191C103.566 29.7644 103.082 29.9358 102.48 29.9358C101.879 29.9358 101.405 29.7644 101.054 29.4191C100.702 29.0738 100.529 28.6294 100.529 28.0807V13.1998ZM116.312 1.94075C116.312 1.40805 116.487 0.95833 116.836 0.591595C117.187 0.224859 117.661 0.0428304 118.263 0.0428304C118.864 0.0428304 119.346 0.224859 119.711 0.591595C120.075 0.95833 120.256 1.40805 120.256 1.94075V23.0133C120.256 23.546 120.075 23.9877 119.711 24.341C119.346 24.6944 118.864 24.8684 118.263 24.8684C117.661 24.8684 117.187 24.6917 116.836 24.341C116.485 23.9877 116.312 23.546 116.312 23.0133V1.94075ZM134.003 20.5318C134.003 21.7391 133.766 22.9035 133.295 24.0252C132.824 25.1468 132.182 26.1426 131.376 27.0126C130.569 27.8826 129.633 28.5812 128.568 29.1059C127.503 29.6306 126.348 29.8929 125.105 29.8929H124.924C124.845 29.8929 124.77 29.8849 124.698 29.8715C124.613 29.8715 124.52 29.8635 124.419 29.8501L119.83 29.4619C119.373 29.3897 119.005 29.1889 118.726 28.857C118.446 28.525 118.308 28.1101 118.308 27.6069C118.308 27.3472 118.353 27.1036 118.446 26.8734C118.539 26.6432 118.654 26.4424 118.79 26.2684C118.925 26.0971 119.096 25.9606 119.303 25.8588C119.511 25.7571 119.742 25.7089 120.001 25.7089H120.28L125.02 26.0971C125.707 26.0971 126.362 25.9391 126.982 25.6233C127.604 25.3074 128.15 24.8898 128.621 24.3732C129.092 23.8565 129.449 23.2622 129.694 22.593C129.936 21.9238 130.058 21.2385 130.058 20.5345V16.1122C130.058 15.4216 129.952 14.7631 129.736 14.1394C129.521 13.5157 129.193 12.9642 128.749 12.4904C128.304 12.0166 127.791 11.6338 127.205 11.3474C126.62 11.0609 125.984 10.9164 125.297 10.9164L123.304 11.0021C123.016 11.0154 122.771 10.9726 122.564 10.8736C122.356 10.7718 122.18 10.6353 122.039 10.464C121.896 10.2927 121.781 10.0892 121.696 9.85902C121.611 9.6288 121.568 9.39324 121.568 9.14696C121.568 8.61426 121.723 8.17257 122.029 7.81922C122.335 7.46587 122.747 7.27581 123.261 7.24904L125.513 7.16338C126.726 7.16338 127.841 7.40698 128.858 7.89685C129.872 8.38672 130.764 9.03989 131.527 9.85902C132.291 10.6781 132.895 11.6284 133.34 12.7072C133.782 13.786 134.005 14.921 134.005 16.1149V20.5372L134.003 20.5318Z" fill="url(#paint0_linear_1976_6782)"/>
</g>
<defs>
<linearGradient id="paint0_linear_1976_6782" x1="48.8274" y1="52.1781" x2="81.4859" y2="-17.4534" gradientUnits="userSpaceOnUse">
<stop stop-color="#00FF93"/>
<stop offset="0.49" stop-color="#41A0D5"/>
<stop offset="1" stop-color="#A03FFF"/>
</linearGradient>
<clipPath id="clip0_1976_6782">
<rect width="134" height="30" fill="white"/>
</clipPath>
</defs>
</svg>
