<svg width="162" height="36" viewBox="0 0 162 36" fill="none" xmlns="http://www.w3.org/2000/svg">
<g clip-path="url(#clip0_1106_11178)">
<path d="M0 33.6968V5.25529C0 4.54859 0.138357 3.88043 0.415071 3.25083C0.691785 2.62122 1.06824 2.06871 1.54123 1.59329C2.01744 1.11787 2.57087 0.742036 3.20152 0.468993C3.83217 0.192737 4.54648 0.0546087 5.34123 0.0546087C7.82843 0.0546087 9.46298 1.0986 10.2416 3.18658L14.3891 14.1083C14.4406 14.2625 14.4792 14.4135 14.505 14.5613C14.5307 14.709 14.5436 14.8761 14.5436 15.0656C14.5436 15.7048 14.3248 16.2349 13.884 16.6557C13.4432 17.0797 12.8769 17.2885 12.1851 17.2885C11.7024 17.2885 11.2745 17.1632 10.9012 16.9126C10.528 16.6621 10.2481 16.2862 10.0582 15.7883L6.17137 4.918C6.03301 4.64174 5.81743 4.50361 5.52463 4.50361C5.02268 4.50361 4.77171 4.75417 4.77171 5.25529V33.7C4.77171 34.3553 4.55291 34.8918 4.1121 35.3061C3.67129 35.7205 3.0889 35.9261 2.36172 35.9261C1.63454 35.9261 1.06181 35.7205 0.637086 35.3061C0.212362 34.8918 0.00321761 34.3585 0.00321761 33.7L0 33.6968ZM22.0889 2.3289C22.0889 1.68966 22.3012 1.15 22.7227 0.709913C23.1475 0.269831 23.7202 0.0513964 24.4474 0.0513964C25.1745 0.0513964 25.7569 0.269831 26.1977 0.709913C26.6386 1.15 26.8574 1.68966 26.8574 2.3289V30.7447C26.8574 31.4514 26.7222 32.1164 26.4552 32.7363C26.1881 33.3563 25.8213 33.9056 25.3547 34.381C24.8882 34.8564 24.338 35.2323 23.7073 35.5053C23.0767 35.7816 22.3559 35.9197 21.5419 35.9197C19.0547 35.9197 17.4105 34.8853 16.6157 32.8134L12.4682 21.6861C12.4167 21.4966 12.3781 21.3295 12.3524 21.1818C12.3266 21.034 12.3138 20.883 12.3138 20.7288C12.3138 20.0896 12.5261 19.5499 12.9476 19.1098C13.3724 18.6698 13.929 18.4513 14.6208 18.4513C15.0713 18.4513 15.4896 18.5734 15.8789 18.8143C16.2682 19.0552 16.5578 19.4279 16.7476 19.9258L20.7664 31.0017C20.8179 31.3133 21.0335 31.4675 21.4132 31.4675C21.8636 31.4675 22.0856 31.2266 22.0856 30.7415V2.3289H22.0889ZM39.5347 22.1551C39.5347 21.5158 39.7246 20.9762 40.1042 20.5361C40.4839 20.096 40.9955 19.8776 41.6326 19.8776H51.5621V19.3315C51.5621 18.4481 51.4109 17.6097 51.1084 16.8131C50.806 16.0164 50.3813 15.3226 49.8375 14.7347C49.2937 14.1469 48.6438 13.6779 47.8941 13.331C47.1444 12.984 46.2306 12.8106 45.1591 12.8106C44.2775 12.8106 43.4441 12.9744 42.659 13.3053C41.8739 13.6329 41.1821 14.0794 40.5837 14.6416C39.9884 15.2037 39.5347 15.8654 39.2226 16.6267C38.9105 17.3881 38.7561 18.2008 38.7561 19.0681C38.7561 19.7266 38.5405 20.2695 38.1093 20.7031C37.6782 21.1368 37.0893 21.352 36.3461 21.352C35.6543 21.352 35.088 21.1464 34.6472 20.732C34.2064 20.3177 33.9876 19.7651 33.9876 19.0745C33.9876 17.5744 34.2932 16.1706 34.9078 14.8696C35.5224 13.5687 36.3235 12.4283 37.3178 11.4518C38.312 10.4785 39.4736 9.71072 40.8057 9.14857C42.1378 8.58963 43.5889 8.30695 45.1623 8.30695C46.8902 8.30695 48.4121 8.59927 49.7249 9.18711C51.0377 9.77496 52.1863 10.5716 53.1741 11.5803C54.1587 12.5889 54.931 13.7582 55.494 15.0881C56.0539 16.418 56.3371 17.8314 56.3371 19.3315V22.1519C56.3371 22.4635 56.2759 22.7558 56.1569 23.032C56.0346 23.3083 55.8705 23.546 55.6646 23.7452C55.4586 23.9443 55.2141 24.0985 54.9374 24.2109C54.6607 24.3234 54.3679 24.378 54.0558 24.378H41.639C40.9987 24.378 40.4903 24.166 40.1107 23.7452C39.731 23.3211 39.5412 22.7911 39.5412 22.1551H39.5347ZM50.5003 30.9021C51.0537 30.9021 51.5493 31.1205 51.9901 31.5606C52.4309 32.0007 52.6497 32.5404 52.6497 33.1796C52.6497 33.8189 52.4309 34.3489 51.9901 34.7697C51.5493 35.1937 51.0537 35.4025 50.5003 35.4025H44.744C43.1545 35.4025 41.7163 35.1487 40.4292 34.638C39.1422 34.1305 38.0128 33.4205 37.0475 32.5147C36.079 31.6088 35.3261 30.5295 34.792 29.2799C34.2546 28.0303 33.9876 26.6619 33.9876 25.1778C33.9876 24.5386 34.1999 23.9989 34.6214 23.5588C35.0462 23.1188 35.6189 22.9003 36.3461 22.9003C37.0732 22.9003 37.6782 23.1188 38.1093 23.5588C38.5405 23.9989 38.7561 24.5386 38.7561 25.1778C38.7561 26.0227 38.8848 26.7968 39.1454 27.4939C39.406 28.1942 39.805 28.7981 40.352 29.3056C40.8958 29.8132 41.5457 30.2083 42.2954 30.4845C43.0483 30.7608 43.8624 30.8989 44.744 30.8989H50.5003V30.9021ZM82.2581 10.6102C82.2581 10.8511 82.2291 11.0856 82.168 11.3104C82.1068 11.5353 82.0007 11.7601 81.843 11.9818L64.6288 34.9913C64.3875 35.3029 64.0915 35.5342 63.7472 35.6916C63.4029 35.8458 63.0458 35.9229 62.6854 35.9229C62.029 35.9229 61.4884 35.7109 61.0637 35.2901C60.639 34.8661 60.4298 34.32 60.4298 33.6454C60.4298 33.1957 60.5939 32.7395 60.9221 32.2738L78.1106 9.26421C78.5771 8.67636 79.1917 8.38405 79.9511 8.38405C80.2793 8.38405 80.5817 8.43865 80.8584 8.55108C81.1351 8.66351 81.3765 8.82413 81.5856 9.02971C81.7947 9.2353 81.9556 9.47301 82.0779 9.74284C82.2002 10.0095 82.2581 10.2986 82.2581 10.6102ZM70.5138 15.9939C70.5138 16.6492 70.2982 17.1857 69.8671 17.6001C69.4359 18.0145 68.8632 18.22 68.1553 18.22C67.7917 18.22 67.4603 18.1558 67.1579 18.0273C66.8554 17.8988 66.5819 17.7029 66.3406 17.4459L61.7265 12.1392C61.3629 11.6734 61.1828 11.1819 61.1828 10.6648C61.1828 10.0095 61.3983 9.46658 61.8295 9.03293C62.2607 8.59927 62.8495 8.38726 63.5928 8.38726C64.336 8.38726 64.9313 8.64745 65.4332 9.16463L69.9958 14.5227C70.1856 14.7636 70.3208 15.011 70.398 15.2615C70.4752 15.5121 70.5138 15.7562 70.5138 16.0004V15.9939ZM83.9698 33.6968C83.9698 34.3521 83.7511 34.8885 83.3102 35.3029C82.8694 35.7173 82.2774 35.9229 81.5341 35.9229C81.1351 35.9229 80.7876 35.8587 80.4852 35.7302C80.1827 35.6017 79.9092 35.4057 79.6679 35.1487L73.9888 28.5218C73.7475 28.2456 73.577 27.9789 73.4837 27.7187C73.3871 27.4586 73.3421 27.1919 73.3421 26.9157C73.3421 26.2764 73.5545 25.7368 73.976 25.2967C74.4007 24.8566 74.9573 24.6382 75.6491 24.6382C76.0288 24.6382 76.3795 24.7056 76.6981 24.8438C77.0166 24.9819 77.2998 25.1971 77.5411 25.4894L83.3746 32.1678C83.5644 32.4087 83.7124 32.6496 83.8154 32.8937C83.9184 33.1346 83.9698 33.4013 83.9698 33.6968ZM110.155 16.797C110.155 17.4362 109.933 17.9663 109.492 18.3903C109.051 18.8143 108.475 19.0231 107.767 19.0231C107.162 19.0231 106.673 18.8818 106.303 18.5959C105.933 18.31 105.676 17.9438 105.537 17.4973L102.246 5.25529C102.091 4.75417 101.789 4.50361 101.338 4.50361C100.939 4.50361 100.666 4.75417 100.508 5.25529L92.0814 34.3457C91.927 34.8468 91.6503 35.2483 91.2513 35.5503C90.8523 35.8522 90.36 36.0032 89.7744 36.0032C89.0311 36.0032 88.4423 35.7912 88.0112 35.3704C87.58 34.9464 87.3644 34.4163 87.3644 33.7771V33.4655C87.3644 33.3788 87.3805 33.2856 87.4159 33.1796L96.0745 3.90934C96.2482 3.34077 96.5024 2.81717 96.8403 2.34496C97.1781 1.86955 97.5739 1.45516 98.034 1.10181C98.4909 0.748461 98.9929 0.475417 99.5366 0.285893C100.08 0.0963683 100.682 0 101.338 0C101.995 0 102.635 0.0963683 103.205 0.285893C103.774 0.475417 104.286 0.748461 104.733 1.10181C105.184 1.45516 105.57 1.86955 105.898 2.34496C106.226 2.82038 106.467 3.34077 106.625 3.90934L110.1 16.2284C110.135 16.3312 110.151 16.4308 110.151 16.5272V16.8002L110.155 16.797ZM115.184 33.8799C115.184 34.1722 115.123 34.4485 115.004 34.7087C114.881 34.9689 114.717 35.1905 114.511 35.3832C114.305 35.5728 114.061 35.7237 113.784 35.8362C113.507 35.9486 113.17 36.0032 112.774 36.0032C112.153 36.0032 111.648 35.8522 111.258 35.5503C110.869 35.2483 110.605 34.8468 110.467 34.3457L107.925 25.1843H100.045C99.4047 25.1843 98.8963 24.9722 98.5166 24.5514C98.137 24.1274 97.9471 23.5974 97.9471 22.9614C97.9471 22.3253 98.137 21.7825 98.5166 21.3424C98.8963 20.9023 99.4079 20.6839 100.045 20.6839H109.817C110.991 20.6839 111.735 21.246 112.047 22.3671L115.078 33.186C115.113 33.3242 115.139 33.4462 115.155 33.549C115.171 33.6518 115.181 33.7643 115.181 33.8863L115.184 33.8799ZM121.535 15.8397C121.535 14.8568 121.728 13.9381 122.118 13.0836C122.507 12.2291 123.025 11.4775 123.672 10.8318C124.319 10.1861 125.075 9.67538 125.94 9.30597C126.806 8.93656 127.745 8.75025 128.765 8.75025H129.258L133.405 8.85304C134.097 8.88837 134.628 9.11644 134.998 9.54047C135.368 9.96449 135.555 10.4945 135.555 11.1305C135.555 11.4421 135.503 11.7345 135.4 12.0107C135.297 12.287 135.152 12.5279 134.972 12.7367C134.792 12.9455 134.557 13.1029 134.274 13.2153C133.988 13.3277 133.682 13.3759 133.354 13.3567L128.765 13.2539C128.402 13.2378 128.064 13.2956 127.755 13.4337C127.443 13.5719 127.173 13.7582 126.938 13.9895C126.703 14.224 126.539 14.497 126.445 14.8182C126.349 15.1363 126.304 15.4768 126.304 15.8397V33.6968C126.304 34.3521 126.082 34.8885 125.644 35.3029C125.207 35.7173 124.621 35.9229 123.894 35.9229C123.167 35.9229 122.594 35.7173 122.169 35.3029C121.745 34.8885 121.535 34.3553 121.535 33.6968V15.8397ZM140.616 2.3289C140.616 1.68966 140.828 1.15 141.25 0.709913C141.674 0.269831 142.247 0.0513964 142.974 0.0513964C143.701 0.0513964 144.284 0.269831 144.725 0.709913C145.165 1.15 145.384 1.68966 145.384 2.3289V27.616C145.384 28.2552 145.165 28.7852 144.725 29.2092C144.284 29.6333 143.701 29.8421 142.974 29.8421C142.247 29.8421 141.674 29.6301 141.25 29.2092C140.825 28.7852 140.616 28.2552 140.616 27.616V2.3289ZM162.003 24.6382C162.003 26.0869 161.717 27.4842 161.147 28.8302C160.578 30.1761 159.802 31.3711 158.827 32.4151C157.852 33.4591 156.72 34.2975 155.433 34.9271C154.146 35.5567 152.749 35.8715 151.247 35.8715H151.028C150.931 35.8715 150.841 35.8619 150.754 35.8458C150.652 35.8458 150.539 35.8362 150.417 35.8201L144.869 35.3543C144.316 35.2676 143.872 35.0267 143.534 34.6284C143.196 34.23 143.029 33.7321 143.029 33.1282C143.029 32.8166 143.084 32.5243 143.196 32.2481C143.309 31.9718 143.447 31.7309 143.611 31.5221C143.775 31.3165 143.981 31.1527 144.232 31.0306C144.483 30.9085 144.763 30.8507 145.075 30.8507H145.413L151.144 31.3165C151.974 31.3165 152.765 31.127 153.515 30.7479C154.268 30.3689 154.928 29.8678 155.497 29.2478C156.067 28.6278 156.498 27.9147 156.794 27.1116C157.087 26.3086 157.235 25.4862 157.235 24.6414V19.3347C157.235 18.5059 157.106 17.7157 156.845 16.9673C156.585 16.2188 156.189 15.5571 155.652 14.9885C155.114 14.4199 154.493 13.9606 153.785 13.6168C153.078 13.2731 152.309 13.0997 151.478 13.0997L149.068 13.2025C148.721 13.2185 148.425 13.1671 148.174 13.0483C147.923 12.9262 147.711 12.7624 147.54 12.5568C147.366 12.3512 147.228 12.1071 147.125 11.8308C147.022 11.5546 146.971 11.2719 146.971 10.9764C146.971 10.3371 147.157 9.80708 147.527 9.38306C147.897 8.95904 148.396 8.73097 149.017 8.69885L151.739 8.59606C153.206 8.59606 154.554 8.88837 155.784 9.47622C157.009 10.0641 158.087 10.8479 159.011 11.8308C159.934 12.8138 160.665 13.9541 161.202 15.2487C161.736 16.5432 162.006 17.9052 162.006 19.3379V24.6446L162.003 24.6382Z" fill="#070229"/>
</g>
<defs>
<clipPath id="clip0_1106_11178">
<rect width="162" height="36" fill="white"/>
</clipPath>
</defs>
</svg>
