<svg width="22" height="22" viewBox="0 0 22 22" fill="none" xmlns="http://www.w3.org/2000/svg">
<g clip-path="url(#clip0_1976_7078)">
<path d="M11 13.8574C12.5188 13.8574 13.75 12.6822 13.75 11.2324C13.75 9.78267 12.5188 8.60742 11 8.60742C9.48122 8.60742 8.25 9.78267 8.25 11.2324C8.25 12.6822 9.48122 13.8574 11 13.8574Z" stroke="#747373" stroke-width="2" stroke-linecap="round" stroke-linejoin="round"/>
<path d="M17.7833 13.8574C17.6613 14.1213 17.6249 14.4141 17.6788 14.6979C17.7327 14.9818 17.8745 15.2437 18.0858 15.4499L18.1408 15.5024C18.3112 15.6649 18.4465 15.858 18.5387 16.0704C18.631 16.2828 18.6785 16.5106 18.6785 16.7405C18.6785 16.9705 18.631 17.1982 18.5387 17.4107C18.4465 17.6231 18.3112 17.8161 18.1408 17.9787C17.9705 18.1414 17.7683 18.2705 17.5458 18.3585C17.3232 18.4466 17.0846 18.4919 16.8437 18.4919C16.6028 18.4919 16.3642 18.4466 16.1417 18.3585C15.9191 18.2705 15.7169 18.1414 15.5466 17.9787L15.4916 17.9262C15.2756 17.7245 15.0012 17.5891 14.7038 17.5377C14.4065 17.4862 14.0998 17.5209 13.8233 17.6374C13.5522 17.7483 13.3209 17.9325 13.1581 18.1673C12.9952 18.402 12.9078 18.6771 12.9066 18.9587V19.1074C12.9066 19.5716 12.7135 20.0167 12.3697 20.3449C12.0258 20.673 11.5595 20.8574 11.0733 20.8574C10.5871 20.8574 10.1207 20.673 9.77693 20.3449C9.43311 20.0167 9.23996 19.5716 9.23996 19.1074V19.0287C9.23286 18.7391 9.13465 18.4582 8.95809 18.2225C8.78154 17.9869 8.5348 17.8074 8.24996 17.7074C7.97348 17.5909 7.66678 17.5562 7.36942 17.6077C7.07206 17.6591 6.79766 17.7945 6.58163 17.9962L6.52663 18.0487C6.35636 18.2114 6.15416 18.3405 5.9316 18.4285C5.70904 18.5166 5.47047 18.5619 5.22954 18.5619C4.98861 18.5619 4.75005 18.5166 4.52749 18.4285C4.30492 18.3405 4.10273 18.2114 3.93246 18.0487C3.762 17.8861 3.62678 17.6931 3.53452 17.4807C3.44226 17.2682 3.39477 17.0405 3.39477 16.8105C3.39477 16.5806 3.44226 16.3528 3.53452 16.1404C3.62678 15.928 3.762 15.7349 3.93246 15.5724L3.98746 15.5199C4.19878 15.3137 4.34055 15.0518 4.39446 14.7679C4.44838 14.4841 4.41198 14.1913 4.28996 13.9274C4.17376 13.6686 3.98082 13.4479 3.73489 13.2924C3.48895 13.137 3.20076 13.0535 2.90579 13.0524H2.74996C2.26373 13.0524 1.79741 12.868 1.4536 12.5399C1.10978 12.2117 0.916626 11.7666 0.916626 11.3024C0.916626 10.8383 1.10978 10.3932 1.4536 10.065C1.79741 9.7368 2.26373 9.55242 2.74996 9.55242H2.83246C3.13587 9.54565 3.43013 9.4519 3.67698 9.28337C3.92384 9.11484 4.11187 8.87932 4.21663 8.60742C4.33865 8.34351 4.37505 8.05075 4.32113 7.76691C4.26721 7.48306 4.12545 7.22114 3.91413 7.01492L3.85913 6.96242C3.68867 6.79989 3.55344 6.60689 3.46118 6.39444C3.36892 6.182 3.32143 5.95427 3.32143 5.7243C3.32143 5.49432 3.36892 5.2666 3.46118 5.05415C3.55344 4.8417 3.68867 4.6487 3.85913 4.48617C4.02939 4.32346 4.23159 4.19438 4.45415 4.10632C4.67672 4.01825 4.91528 3.97292 5.15621 3.97292C5.39714 3.97292 5.6357 4.01825 5.85827 4.10632C6.08083 4.19438 6.28303 4.32346 6.45329 4.48617L6.50829 4.53867C6.72433 4.74039 6.99872 4.87571 7.29609 4.92718C7.59345 4.97864 7.90014 4.9439 8.17663 4.82742H8.24996C8.52108 4.7165 8.75231 4.53233 8.91518 4.29758C9.07805 4.06283 9.16545 3.78774 9.16663 3.50617V3.35742C9.16663 2.89329 9.35978 2.44817 9.7036 2.11999C10.0474 1.7918 10.5137 1.60742 11 1.60742C11.4862 1.60742 11.9525 1.7918 12.2963 2.11999C12.6401 2.44817 12.8333 2.89329 12.8333 3.35742V3.43617C12.8345 3.71774 12.9219 3.99283 13.0847 4.22758C13.2476 4.46233 13.4788 4.6465 13.75 4.75742C14.0264 4.8739 14.3331 4.90864 14.6305 4.85718C14.9279 4.80571 15.2023 4.67039 15.4183 4.46867L15.4733 4.41617C15.6436 4.25346 15.8458 4.12438 16.0683 4.03632C16.2909 3.94825 16.5294 3.90292 16.7704 3.90292C17.0113 3.90292 17.2499 3.94825 17.4724 4.03632C17.695 4.12438 17.8972 4.25346 18.0675 4.41617C18.2379 4.5787 18.3731 4.7717 18.4654 4.98415C18.5577 5.1966 18.6052 5.42432 18.6052 5.6543C18.6052 5.88427 18.5577 6.112 18.4654 6.32444C18.3731 6.53689 18.2379 6.72989 18.0675 6.89242L18.0125 6.94492C17.8011 7.15114 17.6594 7.41306 17.6055 7.69691C17.5515 7.98075 17.5879 8.27351 17.71 8.53742V8.60742C17.8262 8.86622 18.0191 9.08694 18.265 9.2424C18.511 9.39787 18.7992 9.4813 19.0941 9.48242H19.25C19.7362 9.48242 20.2025 9.6668 20.5463 9.99499C20.8901 10.3232 21.0833 10.7683 21.0833 11.2324C21.0833 11.6966 20.8901 12.1417 20.5463 12.4699C20.2025 12.798 19.7362 12.9824 19.25 12.9824H19.1675C18.8725 12.9835 18.5843 13.067 18.3384 13.2224C18.0924 13.3779 17.8995 13.5986 17.7833 13.8574Z" stroke="#747373" stroke-width="2" stroke-linecap="round" stroke-linejoin="round"/>
</g>
<defs>
<clipPath id="clip0_1976_7078">
<rect width="22" height="21" fill="white" transform="translate(0 0.732422)"/>
</clipPath>
</defs>
</svg>
