<svg width="18" height="20" viewBox="0 0 18 20" fill="none" xmlns="http://www.w3.org/2000/svg">
<path d="M2.25 5H3.75H15.75" stroke="#0267FF" stroke-width="2" stroke-linecap="round" stroke-linejoin="round"/>
<path d="M14.25 5.00033V16.667C14.25 17.109 14.092 17.5329 13.8107 17.8455C13.5294 18.1581 13.1478 18.3337 12.75 18.3337H5.25C4.85218 18.3337 4.47064 18.1581 4.18934 17.8455C3.90804 17.5329 3.75 17.109 3.75 16.667V5.00033M6 5.00033V3.33366C6 2.89163 6.15804 2.46771 6.43934 2.15515C6.72064 1.84259 7.10218 1.66699 7.5 1.66699H10.5C10.8978 1.66699 11.2794 1.84259 11.5607 2.15515C11.842 2.46771 12 2.89163 12 3.33366V5.00033" stroke="#0267FF" stroke-width="2" stroke-linecap="round" stroke-linejoin="round"/>
<path d="M7.5 9.16699V14.167" stroke="#0267FF" stroke-width="2" stroke-linecap="round" stroke-linejoin="round"/>
<path d="M10.5 9.16699V14.167" stroke="#0267FF" stroke-width="2" stroke-linecap="round" stroke-linejoin="round"/>
</svg>
