<svg width="18" height="17" viewBox="0 0 18 17" fill="none" xmlns="http://www.w3.org/2000/svg">
<path d="M16.17 0.782715L9.73633 5.54317L10.9327 2.73768L16.17 0.782715Z" fill="#E17726" stroke="#E17726" stroke-width="0.25" stroke-linecap="round" stroke-linejoin="round"/>
<path d="M1.32983 0.782715L7.70622 5.5876L6.56713 2.73767L1.32983 0.782715Z" fill="#E27625" stroke="#E27625" stroke-width="0.25" stroke-linecap="round" stroke-linejoin="round"/>
<path d="M13.8534 11.8198L12.1416 14.4349L15.8071 15.4441L16.8571 11.877L13.8534 11.8198Z" fill="#E27625" stroke="#E27625" stroke-width="0.25" stroke-linecap="round" stroke-linejoin="round"/>
<path d="M0.648926 11.877L1.69256 15.4441L5.35167 14.4349L3.6462 11.8198L0.648926 11.877Z" fill="#E27625" stroke="#E27625" stroke-width="0.25" stroke-linecap="round" stroke-linejoin="round"/>
<path d="M5.1544 7.40415L4.13623 8.9402L7.76351 9.10523L7.64261 5.20166L5.1544 7.40415Z" fill="#E27625" stroke="#E27625" stroke-width="0.25" stroke-linecap="round" stroke-linejoin="round"/>
<path d="M12.3454 7.4022L9.81906 5.15527L9.73633 9.10328L13.3636 8.93826L12.3454 7.4022Z" fill="#E27625" stroke="#E27625" stroke-width="0.25" stroke-linecap="round" stroke-linejoin="round"/>
<path d="M5.35181 14.4344L7.54724 13.3744L5.65727 11.9019L5.35181 14.4344Z" fill="#E27625" stroke="#E27625" stroke-width="0.25" stroke-linecap="round" stroke-linejoin="round"/>
<path d="M9.95264 13.3744L12.1417 14.4344L11.8426 11.9019L9.95264 13.3744Z" fill="#E27625" stroke="#E27625" stroke-width="0.25" stroke-linecap="round" stroke-linejoin="round"/>
<path d="M12.1417 14.4364L9.95264 13.3765L10.1308 14.7982L10.1117 15.4012L12.1417 14.4364Z" fill="#D5BFB2" stroke="#D5BFB2" stroke-width="0.25" stroke-linecap="round" stroke-linejoin="round"/>
<path d="M5.35181 14.4364L7.38819 15.4012L7.37545 14.7982L7.54724 13.3765L5.35181 14.4364Z" fill="#D5BFB2" stroke="#D5BFB2" stroke-width="0.25" stroke-linecap="round" stroke-linejoin="round"/>
<path d="M7.42646 10.9643L5.60645 10.4311L6.8919 9.84082L7.42646 10.9643Z" fill="#233447" stroke="#233447" stroke-width="0.25" stroke-linecap="round" stroke-linejoin="round"/>
<path d="M10.0737 10.9643L10.6083 9.84082L11.9001 10.4311L10.0737 10.9643Z" fill="#233447" stroke="#233447" stroke-width="0.25" stroke-linecap="round" stroke-linejoin="round"/>
<path d="M5.35168 14.4349L5.66989 11.8198L3.64624 11.877L5.35168 14.4349Z" fill="#CC6228" stroke="#CC6228" stroke-width="0.25" stroke-linecap="round" stroke-linejoin="round"/>
<path d="M11.8298 11.8198L12.1417 14.4349L13.8535 11.877L11.8298 11.8198Z" fill="#CC6228" stroke="#CC6228" stroke-width="0.25" stroke-linecap="round" stroke-linejoin="round"/>
<path d="M13.3636 8.93799L9.73633 9.10302L10.0736 10.9628L10.6082 9.8393L11.9 10.4296L13.3636 8.93799Z" fill="#CC6228" stroke="#CC6228" stroke-width="0.25" stroke-linecap="round" stroke-linejoin="round"/>
<path d="M5.60623 10.4296L6.89168 9.8393L7.42625 10.9628L7.76351 9.10302L4.13623 8.93799L5.60623 10.4296Z" fill="#CC6228" stroke="#CC6228" stroke-width="0.25" stroke-linecap="round" stroke-linejoin="round"/>
<path d="M4.13623 8.93799L5.65715 11.9022L5.60621 10.4296L4.13623 8.93799Z" fill="#E27525" stroke="#E27525" stroke-width="0.25" stroke-linecap="round" stroke-linejoin="round"/>
<path d="M11.9 10.4296L11.8428 11.9022L13.3637 8.93799L11.9 10.4296Z" fill="#E27525" stroke="#E27525" stroke-width="0.25" stroke-linecap="round" stroke-linejoin="round"/>
<path d="M7.76358 9.104L7.42627 10.9638L7.85263 13.1599L7.9481 10.2656L7.76358 9.104Z" fill="#E27525" stroke="#E27525" stroke-width="0.25" stroke-linecap="round" stroke-linejoin="round"/>
<path d="M9.73631 9.104L9.55811 10.2593L9.64721 13.1599L10.0736 10.9638L9.73631 9.104Z" fill="#E27525" stroke="#E27525" stroke-width="0.25" stroke-linecap="round" stroke-linejoin="round"/>
<path d="M10.0736 10.9639L9.64722 13.16L9.95268 13.3758L11.8427 11.9032L11.9 10.4307L10.0736 10.9639Z" fill="#F5841F" stroke="#F5841F" stroke-width="0.25" stroke-linecap="round" stroke-linejoin="round"/>
<path d="M5.60645 10.4307L5.65739 11.9032L7.54736 13.3758L7.85282 13.16L7.42646 10.9639L5.60645 10.4307Z" fill="#F5841F" stroke="#F5841F" stroke-width="0.25" stroke-linecap="round" stroke-linejoin="round"/>
<path d="M10.1118 15.4018L10.1309 14.7988L9.96546 14.6592H7.53455L7.37545 14.7988L7.38819 15.4018L5.35181 14.437L6.06453 15.021L7.50908 16.0175H9.98451L11.4354 15.021L12.1418 14.437L10.1118 15.4018Z" fill="#C0AC9D" stroke="#C0AC9D" stroke-width="0.25" stroke-linecap="round" stroke-linejoin="round"/>
<path d="M9.95276 13.3754L9.64729 13.1597H7.85274L7.54733 13.3754L7.37549 14.7973L7.53459 14.6576H9.96549L10.131 14.7973L9.95276 13.3754Z" fill="#161616" stroke="#161616" stroke-width="0.25" stroke-linecap="round" stroke-linejoin="round"/>
<path d="M16.4435 5.85417L16.9845 3.22642L16.1699 0.782715L9.95264 5.38451L12.3453 7.40292L15.7244 8.38677L16.469 7.5172L16.1445 7.28232L16.6599 6.81265L16.2654 6.50797L16.7808 6.11443L16.4435 5.85417Z" fill="#763E1A" stroke="#763E1A" stroke-width="0.25" stroke-linecap="round" stroke-linejoin="round"/>
<path d="M0.515381 3.22642L1.06265 5.85417L0.712656 6.11443L1.23447 6.50797L0.839927 6.81265L1.35538 7.28232L1.03083 7.5172L1.77538 8.38677L5.1545 7.40292L7.5472 5.38451L1.32993 0.782715L0.515381 3.22642Z" fill="#763E1A" stroke="#763E1A" stroke-width="0.25" stroke-linecap="round" stroke-linejoin="round"/>
<path d="M15.7246 8.38664L12.3455 7.40283L13.3637 8.93889L11.8428 11.903L13.8537 11.8777H16.8573L15.7246 8.38664Z" fill="#F5841F" stroke="#F5841F" stroke-width="0.25" stroke-linecap="round" stroke-linejoin="round"/>
<path d="M5.15436 7.40283L1.77529 8.38664L0.648926 11.8777H3.6462L5.65709 11.903L4.1362 8.93889L5.15436 7.40283Z" fill="#F5841F" stroke="#F5841F" stroke-width="0.25" stroke-linecap="round" stroke-linejoin="round"/>
<path d="M9.73624 9.10363L9.9526 5.3841L10.9326 2.7373H6.56714L7.54712 5.3841L7.76349 9.10363L7.84622 10.2715L7.85259 13.1595H9.64714L9.6535 10.2715L9.73624 9.10363Z" fill="#F5841F" stroke="#F5841F" stroke-width="0.25" stroke-linecap="round" stroke-linejoin="round"/>
</svg>
