<svg width="20" height="20" viewBox="0 0 20 20" fill="none" xmlns="http://www.w3.org/2000/svg">
<path fill-rule="evenodd" clip-rule="evenodd" d="M17.5431 4.00925C18.3526 4.22727 18.991 4.86548 19.2088 5.67513C19.6137 7.15399 19.5982 10.2366 19.5982 10.2366C19.5982 10.2366 19.5982 13.3035 19.209 14.7825C18.991 15.592 18.3528 16.2303 17.5431 16.4482C16.0641 16.8375 10.1482 16.8375 10.1482 16.8375C10.1482 16.8375 4.24775 16.8375 2.75331 16.4328C1.94365 16.2148 1.30545 15.5764 1.08742 14.7669C0.698242 13.3035 0.698242 10.221 0.698242 10.221C0.698242 10.221 0.698242 7.15399 1.08742 5.67513C1.3053 4.86562 1.95923 4.2117 2.75316 3.99382C4.23217 3.60449 10.1481 3.60449 10.1481 3.60449C10.1481 3.60449 16.0641 3.60449 17.5431 4.00925ZM13.1839 10.2211L8.26434 13.0546V7.38766L13.1839 10.2211Z" fill="white"/>
</svg>
